<svg width="32" height="32" viewBox="0 0 32 32" fill="none" xmlns="http://www.w3.org/2000/svg">
<path fill-rule="evenodd" clip-rule="evenodd" d="M18.93 21.9528C23.4678 20.7433 26.8105 16.6052 26.8105 11.6864C26.8105 5.81893 22.0539 1.06238 16.1864 1.06238C10.3189 1.06238 5.56238 5.81893 5.56238 11.6864C5.56238 16.6052 8.90511 20.7433 13.4428 21.9528L16.1864 28.6849L18.93 21.9528Z" fill="#31A8FF"/>
<path fill-rule="evenodd" clip-rule="evenodd" d="M13.4429 21.9529C8.90514 20.7433 5.56241 16.6053 5.56241 11.6865C5.56241 5.81896 10.319 1.06241 16.1865 1.06241C22.054 1.06241 26.8105 5.81896 26.8105 11.6865C26.8105 16.6053 23.4678 20.7433 18.9301 21.9529L16.1865 28.685L13.4429 21.9529ZM19.7203 22.8288C24.4466 21.331 27.8729 16.9101 27.8729 11.6865C27.8729 5.23221 22.6407 0 16.1865 0C9.73221 0 4.5 5.23221 4.5 11.6865C4.5 16.9101 7.92633 21.331 12.6526 22.8288L16.1865 31.5L19.7203 22.8288Z" fill="#066EA9"/>
<path d="M16.0008 12.5045C15.2904 13.6363 14.3633 14.4551 12.9546 15.1534C13.1592 15.3701 13.3519 15.5989 13.5205 15.912C13.6288 16.1046 13.677 16.1889 13.7492 16.1889C13.8215 16.1889 13.8937 16.1287 14.0382 16.0444C15.2663 15.2618 16.1453 14.2985 16.7353 13.1667C16.7233 14.6959 16.6631 16.3334 16.6631 16.7307C16.6631 16.8511 16.6751 16.8632 16.7955 16.8632H17.7828C17.9032 16.8632 17.9153 16.8511 17.9153 16.7307C17.9153 16.3213 17.843 14.6116 17.843 13.1065C18.5053 14.3226 19.4083 15.2738 20.5763 16.0083C20.7087 16.0926 20.793 16.1407 20.8532 16.1407C20.9254 16.1407 20.9616 16.0565 21.0338 15.8758C21.1542 15.5387 21.2987 15.2377 21.5154 14.9608C20.1067 14.2985 19.2518 13.5641 18.5173 12.5045H19.5167C20.6967 12.5045 21.106 12.5286 21.1783 12.5286C21.2866 12.5286 21.2987 12.5165 21.2987 12.3961V11.5051C21.2987 11.3847 21.2866 11.3727 21.1783 11.3727C21.106 11.3727 20.6967 11.3967 19.5167 11.3967H17.8912V10.301H18.6738C19.7575 10.301 20.1187 10.3251 20.203 10.3251C20.3234 10.3251 20.3354 10.3131 20.3354 10.1927C20.3354 10.1204 20.3114 9.81942 20.3114 9.13311V7.60395C20.3114 6.91764 20.3354 6.61662 20.3354 6.54438C20.3354 6.42397 20.3234 6.41193 20.203 6.41193C20.1187 6.41193 19.7575 6.43601 18.6738 6.43601H16.0008C14.9172 6.43601 14.5439 6.41193 14.4596 6.41193C14.3392 6.41193 14.3272 6.42397 14.3272 6.54438C14.3272 6.62866 14.3513 6.91764 14.3513 7.60395V9.13311C14.3513 9.81942 14.3272 10.1084 14.3272 10.1927C14.3272 10.3131 14.3392 10.3251 14.4596 10.3251C14.5439 10.3251 14.9172 10.301 16.0008 10.301H16.6871V11.3967H15.1821C13.99 11.3967 13.5807 11.3727 13.5084 11.3727C13.388 11.3727 13.376 11.3847 13.376 11.5051V12.3961C13.376 12.5165 13.388 12.5286 13.5084 12.5286C13.5807 12.5286 13.99 12.5045 15.1821 12.5045H16.0008ZM19.0712 9.25352H15.5674V7.53171H19.0712V9.25352ZM11.5699 14.9487C11.5699 16.1167 11.5458 16.6946 11.5458 16.7669C11.5458 16.8873 11.5578 16.8993 11.6662 16.8993H12.6776C12.798 16.8993 12.8101 16.8873 12.8101 16.7669C12.8101 16.7066 12.786 16.1167 12.786 14.9487V8.75985C13.0629 8.21802 13.3037 7.65212 13.5205 7.07417C13.6288 6.76111 13.689 6.6407 13.7733 6.5805C13.8696 6.50826 13.9058 6.4601 13.9058 6.37581C13.9058 6.27949 13.8335 6.24336 13.7131 6.1952C13.3639 6.05072 12.9546 5.94235 12.5452 5.83398C12.509 6.135 12.4488 6.41193 12.3525 6.68887C11.8709 8.1217 11.1846 9.37392 10.1611 10.5057C10.3056 10.7465 10.4742 11.1198 10.5826 11.5412C10.6307 11.6857 10.6668 11.758 10.727 11.758C10.7752 11.758 10.8354 11.6978 10.9197 11.6014C11.1485 11.3125 11.3772 11.0235 11.594 10.7225C11.5819 11.2402 11.5699 11.7941 11.5699 12.2396V14.9487Z" fill="white"/>
</svg>
