<svg width="32" height="32" viewBox="0 0 32 32" fill="none" xmlns="http://www.w3.org/2000/svg">
<mask id="path-1-outside-1_63_1064" maskUnits="userSpaceOnUse" x="3.02231" y="0" width="24" height="32" fill="black">
<rect fill="white" x="3.02231" width="24" height="32"/>
<path fill-rule="evenodd" clip-rule="evenodd" d="M18.1601 22.5313C22.6199 21.3426 25.9051 17.2757 25.9051 12.4414C25.9051 6.67478 21.2304 2 15.4637 2C9.69709 2 5.02231 6.67478 5.02231 12.4414C5.02231 17.2757 8.30759 21.3426 12.7673 22.5313L15.4637 29.1476L18.1601 22.5313Z"/>
</mask>
<path fill-rule="evenodd" clip-rule="evenodd" d="M18.1601 22.5313C22.6199 21.3426 25.9051 17.2757 25.9051 12.4414C25.9051 6.67478 21.2304 2 15.4637 2C9.69709 2 5.02231 6.67478 5.02231 12.4414C5.02231 17.2757 8.30759 21.3426 12.7673 22.5313L15.4637 29.1476L18.1601 22.5313Z" fill="#31A8FF"/>
<path d="M18.1601 22.5313L17.8912 21.5224L17.3893 21.6562L17.1932 22.1373L18.1601 22.5313ZM12.7673 22.5313L13.7342 22.1373L13.5382 21.6562L13.0363 21.5224L12.7673 22.5313ZM15.4637 29.1476L14.4968 29.5417L15.4637 31.9143L16.4307 29.5417L15.4637 29.1476ZM24.861 12.4414C24.861 16.7908 21.9053 20.4524 17.8912 21.5224L18.4291 23.5402C23.3344 22.2327 26.9493 17.7605 26.9493 12.4414H24.861ZM15.4637 3.04414C20.6537 3.04414 24.861 7.25144 24.861 12.4414H26.9493C26.9493 6.09812 21.807 0.955859 15.4637 0.955859V3.04414ZM6.06645 12.4414C6.06645 7.25144 10.2738 3.04414 15.4637 3.04414V0.955859C9.12043 0.955859 3.97817 6.09812 3.97817 12.4414H6.06645ZM13.0363 21.5224C9.02216 20.4524 6.06645 16.7908 6.06645 12.4414H3.97817C3.97817 17.7605 7.59303 22.2327 12.4984 23.5403L13.0363 21.5224ZM16.4307 28.7535L13.7342 22.1373L11.8004 22.9254L14.4968 29.5417L16.4307 28.7535ZM17.1932 22.1373L14.4968 28.7535L16.4307 29.5417L19.1271 22.9254L17.1932 22.1373Z" fill="#066EA9" mask="url(#path-1-outside-1_63_1064)"/>
</svg>
