<svg width="184" height="16" viewBox="0 0 184 16" fill="none" xmlns="http://www.w3.org/2000/svg">
<path d="M5.424 1.52C4.272 1.52 3.92 1.488 3.824 1.488C3.648 1.488 3.632 1.504 3.632 1.664V3.008C3.632 3.168 3.648 3.184 3.824 3.184C3.92 3.184 4.272 3.152 5.424 3.152H7.408C7.2 7.728 4.944 11.552 0.975998 13.504C1.296 13.744 1.664 14.128 1.92 14.56C2.08 14.816 2.144 14.944 2.256 14.944C2.336 14.944 2.432 14.864 2.624 14.752C5.52 12.96 7.648 10.064 8.512 6.784C9.312 9.968 11.088 12.576 14 14.72C14.176 14.848 14.288 14.928 14.368 14.928C14.464 14.928 14.528 14.816 14.656 14.56C14.944 14.016 15.312 13.616 15.6 13.344C11.84 11.072 9.872 7.776 9.376 3.456C9.28 2.688 9.248 2.256 9.28 1.68C9.28 1.52 9.216 1.488 9.072 1.488C8.976 1.488 8.624 1.52 7.472 1.52H5.424ZM20.816 1.2C20.816 1.92 20.752 2.464 20.688 3.024C20.48 4.624 20.304 5.936 20.304 7.008C20.304 8.336 20.528 9.568 20.784 10.256C20.816 10.368 20.896 10.48 21.008 10.464C21.408 10.416 22.096 10.32 22.288 10.272C22.432 10.24 22.496 10.176 22.496 10.016C22.512 9.824 22.528 9.68 22.576 9.536C22.8 8.832 23.168 8.16 23.52 7.488C23.616 7.344 23.68 7.216 23.68 7.088C23.68 7.008 23.664 6.928 23.584 6.832C23.392 6.56 23.232 6.272 23.088 5.792C22.656 6.608 22.32 7.216 21.968 7.84C21.936 7.264 21.984 6.656 22.016 6.08C22.112 5.248 22.24 4.112 22.464 3.024C22.56 2.624 22.64 2.4 22.752 2.272C22.832 2.176 22.864 2.112 22.864 2.016C22.864 1.872 22.768 1.776 22.56 1.696C22.144 1.504 21.536 1.344 20.816 1.2ZM25.936 1.232C26.112 1.792 26.192 2.192 26.272 2.976C26.384 4 26.464 5.664 26.464 6.8C26.464 9.328 26.048 10.64 25.12 11.904C24.48 12.752 23.696 13.328 22.4 14.048C22.912 14.192 23.408 14.48 23.76 14.784C23.888 14.912 23.984 14.96 24.096 14.96C24.192 14.96 24.304 14.928 24.416 14.848C25.424 14.208 26.432 13.264 27.056 12.272C27.904 10.96 28.272 8.992 28.272 6.72C28.272 5.568 28.16 4.112 28.048 2.592C28.048 2.368 28.048 2.08 28.08 1.856C28.112 1.584 28.08 1.504 27.76 1.424C27.296 1.296 26.64 1.264 25.936 1.232ZM38.24 5.344C38.16 5.136 38.064 4.896 37.952 4.496C37.776 3.856 37.728 3.616 37.632 3.264C37.6 3.056 37.568 2.944 37.568 2.736C37.568 2.512 37.472 2.4 37.328 2.4C36.704 2.4 35.872 2.496 35.184 2.64C35.6 3.2 35.808 3.68 35.92 3.968C36.24 4.816 36.464 5.456 36.656 6.032C35.696 6.448 35.152 6.64 34.8 6.768C34.224 6.976 33.952 7.056 33.232 7.184C33.536 7.712 33.808 8.272 34.208 8.752C34.336 8.912 34.496 8.992 34.592 8.992C34.672 8.992 34.784 8.928 34.896 8.832C35.152 8.64 35.328 8.528 35.728 8.336C36.128 8.144 36.64 7.904 37.248 7.616C38.112 10.016 38.8 12.176 39.552 14.72C39.6 14.88 39.648 14.912 39.76 14.896C40.272 14.752 40.736 14.592 41.136 14.384C41.36 14.272 41.344 14.208 41.28 14C40.448 11.52 39.648 9.28 38.8 6.88C39.776 6.432 40.512 6.144 41.44 5.824C42.288 5.552 42.96 5.376 43.808 5.376C44.832 5.376 45.472 5.84 45.472 6.688C45.472 7.808 44.544 8.464 43.072 8.464C42.464 8.464 42 8.416 41.296 8.304C41.712 8.8 41.888 9.248 42.08 9.84C42.144 10.032 42.224 10.112 42.512 10.128C42.72 10.144 42.896 10.144 43.216 10.144C45.824 10.144 47.344 8.88 47.344 6.816C47.344 5.056 46.032 3.856 43.968 3.856C43.024 3.856 42.208 3.968 41.152 4.304C40.256 4.576 39.264 4.944 38.24 5.344ZM39.52 1.968C40.352 2.48 40.944 3.088 41.504 3.728C41.552 3.776 41.6 3.808 41.632 3.808C41.68 3.808 41.728 3.776 41.776 3.744C42.176 3.488 42.544 3.184 42.832 2.864C42.88 2.8 42.912 2.752 42.912 2.688C42.912 2.624 42.88 2.576 42.832 2.512C42.352 1.936 41.616 1.392 41.104 1.056C41.024 1.008 40.976 0.992 40.928 0.992C40.88 0.992 40.832 1.008 40.752 1.056C40.416 1.264 39.968 1.616 39.52 1.968ZM57.632 3.52C55.712 3.632 53.648 3.76 52.672 3.84C51.824 3.904 51.312 3.968 50.72 3.904C50.848 4.56 50.992 5.2 51.12 5.52C51.168 5.68 51.232 5.744 51.392 5.744C51.536 5.744 51.792 5.6 52.144 5.552C53.408 5.376 55.664 5.184 57.68 5.072C57.68 5.6 57.696 6.144 57.696 6.704C57.44 6.48 56.96 6.384 56.48 6.384C55.184 6.384 54.064 7.296 54.064 8.784C54.064 10.32 55.024 11.232 56.288 11.232C56.816 11.232 57.472 11.056 57.792 10.592C57.504 11.936 56.384 13.28 54.512 14.112C54.928 14.24 55.36 14.448 55.728 14.752C55.888 14.88 56.064 14.992 56.208 14.992C56.352 14.992 56.56 14.864 56.832 14.688C58.928 13.312 59.68 11.376 59.68 9.52C59.68 8.992 59.6 8.368 59.44 7.936C59.424 6.96 59.424 5.936 59.424 4.96C61.088 4.944 62.64 4.944 64.304 4.992C64.496 5.008 64.576 4.96 64.576 4.784C64.592 4.384 64.592 3.968 64.576 3.568C64.56 3.36 64.528 3.328 64.336 3.328C62.8 3.328 61.152 3.344 59.424 3.408C59.44 2.8 59.44 2.592 59.456 2.384C59.488 2.176 59.536 2.016 59.584 1.92C59.68 1.76 59.728 1.68 59.728 1.552C59.728 1.408 59.552 1.296 59.28 1.248C58.896 1.168 58.128 1.072 57.408 1.024C57.536 1.504 57.568 1.728 57.6 2.192C57.616 2.624 57.616 3.024 57.632 3.52ZM56.608 7.632C57.248 7.632 57.664 8 57.664 8.656C57.664 9.392 57.168 9.76 56.576 9.76C56 9.76 55.552 9.376 55.552 8.672C55.552 7.968 56.112 7.632 56.608 7.632ZM68.352 2.88C68.512 3.616 68.544 4.096 68.544 4.976C68.544 6.448 68.672 8.112 68.928 9.632C69.36 12.336 70.672 13.808 71.92 13.808C73.04 13.808 74.032 12.944 74.64 11.312C74.72 11.088 74.72 10.896 74.528 10.72C74.208 10.416 73.856 10.048 73.504 9.488C72.88 11.152 72.48 11.712 71.968 11.712C71.296 11.712 70.88 10.624 70.656 9.36C70.4 7.888 70.368 6.736 70.368 5.712C70.368 5.024 70.448 4.336 70.512 4.144C70.592 3.952 70.64 3.792 70.64 3.696C70.64 3.584 70.528 3.472 70.384 3.408C69.904 3.168 69.12 2.976 68.352 2.88ZM76.544 5.152C78.176 6.784 78.992 8.448 79.536 10.736C79.568 10.928 79.68 10.976 79.872 10.912C80.304 10.768 80.704 10.544 81.12 10.272C81.248 10.192 81.344 10.128 81.296 9.92C80.896 7.92 79.616 5.712 78.16 4.448C78.096 4.384 78.048 4.352 77.984 4.352C77.936 4.352 77.872 4.384 77.808 4.416C77.552 4.544 77.152 4.768 76.544 5.152ZM91.984 9.44C91.04 10.944 89.808 12.032 87.936 12.96C88.208 13.248 88.464 13.552 88.688 13.968C88.832 14.224 88.896 14.336 88.992 14.336C89.088 14.336 89.184 14.256 89.376 14.144C91.008 13.104 92.176 11.824 92.96 10.32C92.944 12.352 92.864 14.528 92.864 15.056C92.864 15.216 92.88 15.232 93.04 15.232H94.352C94.512 15.232 94.528 15.216 94.528 15.056C94.528 14.512 94.432 12.24 94.432 10.24C95.312 11.856 96.512 13.12 98.064 14.096C98.24 14.208 98.352 14.272 98.432 14.272C98.528 14.272 98.576 14.16 98.672 13.92C98.832 13.472 99.024 13.072 99.312 12.704C97.44 11.824 96.304 10.848 95.328 9.44H96.656C98.224 9.44 98.768 9.472 98.864 9.472C99.008 9.472 99.024 9.456 99.024 9.296V8.112C99.024 7.952 99.008 7.936 98.864 7.936C98.768 7.936 98.224 7.968 96.656 7.968H94.496V6.512H95.536C96.976 6.512 97.456 6.544 97.568 6.544C97.728 6.544 97.744 6.528 97.744 6.368C97.744 6.272 97.712 5.872 97.712 4.96V2.928C97.712 2.016 97.744 1.616 97.744 1.52C97.744 1.36 97.728 1.344 97.568 1.344C97.456 1.344 96.976 1.376 95.536 1.376H91.984C90.544 1.376 90.048 1.344 89.936 1.344C89.776 1.344 89.76 1.36 89.76 1.52C89.76 1.632 89.792 2.016 89.792 2.928V4.96C89.792 5.872 89.76 6.256 89.76 6.368C89.76 6.528 89.776 6.544 89.936 6.544C90.048 6.544 90.544 6.512 91.984 6.512H92.896V7.968H90.896C89.312 7.968 88.768 7.936 88.672 7.936C88.512 7.936 88.496 7.952 88.496 8.112V9.296C88.496 9.456 88.512 9.472 88.672 9.472C88.768 9.472 89.312 9.44 90.896 9.44H91.984ZM96.064 5.12H91.408V2.832H96.064V5.12ZM86.096 12.688C86.096 14.24 86.064 15.008 86.064 15.104C86.064 15.264 86.08 15.28 86.224 15.28H87.568C87.728 15.28 87.744 15.264 87.744 15.104C87.744 15.024 87.712 14.24 87.712 12.688V4.464C88.08 3.744 88.4 2.992 88.688 2.224C88.832 1.808 88.912 1.648 89.024 1.568C89.152 1.472 89.2 1.408 89.2 1.296C89.2 1.168 89.104 1.12 88.944 1.056C88.48 0.863999 87.936 0.719999 87.392 0.575999C87.344 0.976 87.264 1.344 87.136 1.712C86.496 3.616 85.584 5.28 84.224 6.784C84.416 7.104 84.64 7.6 84.784 8.16C84.848 8.352 84.896 8.448 84.976 8.448C85.04 8.448 85.12 8.368 85.232 8.24C85.536 7.856 85.84 7.472 86.128 7.072C86.112 7.76 86.096 8.496 86.096 9.088V12.688ZM113.84 9.264C113.84 8.032 113.872 7.392 113.872 7.296C113.872 7.12 113.856 7.104 113.696 7.104C113.6 7.104 113.04 7.136 111.504 7.136H106.608C105.056 7.136 104.512 7.104 104.4 7.104C104.24 7.104 104.224 7.12 104.224 7.296C104.224 7.392 104.256 7.936 104.256 9.136V13.216C104.256 14.4 104.224 14.912 104.224 15.008C104.224 15.168 104.24 15.184 104.4 15.184H105.696C105.856 15.184 105.872 15.168 105.872 15.008C105.872 14.928 105.84 14.368 105.84 13.2V12.48H112.24V13.12C112.24 13.52 112.112 13.648 111.696 13.648C111.264 13.648 110.864 13.632 110.176 13.584C110.368 13.952 110.496 14.272 110.592 14.752C110.672 15.136 110.72 15.12 111.216 15.12C112.64 15.12 113.184 14.992 113.472 14.736C113.776 14.448 113.888 13.92 113.888 13.408C113.888 13.024 113.84 12.144 113.84 11.392V9.264ZM112.24 8.448V9.28H105.84V8.448H112.24ZM105.84 11.296V10.464H112.24V11.296H105.84ZM106.128 3.456C105.872 3.936 105.504 4.448 105.088 4.992C104.784 5.008 104.464 5.008 104.192 5.008C103.648 5.024 103.12 5.008 102.544 4.976C102.608 5.44 102.704 6.048 102.8 6.416C102.832 6.56 102.88 6.624 102.992 6.624C103.072 6.624 103.152 6.592 103.216 6.56C103.328 6.496 103.44 6.48 103.76 6.464C106.624 6.368 110.544 6.176 113.264 5.92C113.616 6.272 113.968 6.64 114.288 7.024C114.4 7.152 114.464 7.12 114.608 6.992L115.392 6.288C115.488 6.192 115.52 6.144 115.52 6.08C115.52 6.032 115.488 5.984 115.44 5.936C114.704 5.104 113.504 4.128 112.48 3.456H113.968C115.392 3.456 115.872 3.488 115.968 3.488C116.144 3.488 116.16 3.472 116.16 3.312V2.24C116.16 2.08 116.144 2.064 115.968 2.064C115.872 2.064 115.392 2.096 113.968 2.096H109.744V2.048C109.744 1.456 109.776 1.248 109.824 1.12C109.856 0.992 109.92 0.895999 109.92 0.799999C109.92 0.719999 109.84 0.655999 109.68 0.639999C109.12 0.591999 108.544 0.559999 107.968 0.559999C108.048 0.943999 108.08 1.36 108.08 2.048V2.096H104.112C102.688 2.096 102.208 2.064 102.112 2.064C101.952 2.064 101.936 2.08 101.936 2.256V3.312C101.936 3.472 101.952 3.488 102.112 3.488C102.208 3.488 102.688 3.456 104.112 3.456H106.128ZM111.472 3.456L111.056 3.84C110.912 3.984 110.912 4.016 111.056 4.112C111.344 4.32 111.632 4.512 111.904 4.736C110.352 4.832 108.56 4.912 106.912 4.96C107.264 4.512 107.6 4.016 107.952 3.456H111.472ZM124.912 7.168C123.568 7.168 123.104 7.136 122.992 7.136C122.832 7.136 122.816 7.152 122.816 7.312C122.816 7.424 122.848 7.584 122.848 8.128V8.752C122.848 9.28 122.816 9.456 122.816 9.568C122.816 9.728 122.832 9.744 122.992 9.744C123.104 9.744 123.568 9.712 124.912 9.712H125.056C124.112 10.512 122.912 11.104 121.408 11.568C121.632 11.792 121.824 12.064 122 12.384C122.128 12.608 122.192 12.704 122.304 12.704C122.384 12.704 122.48 12.656 122.64 12.592C123.728 12.128 124.64 11.536 125.472 10.72C125.456 11.648 125.44 12.448 125.44 12.608C125.44 12.768 125.456 12.784 125.616 12.784H126.672C126.848 12.784 126.864 12.768 126.864 12.608C126.864 12.448 126.832 11.568 126.816 10.56C127.664 11.504 128.752 12.176 129.824 12.656C130 12.736 130.112 12.784 130.192 12.784C130.32 12.784 130.384 12.672 130.528 12.416C130.688 12.128 130.896 11.824 131.104 11.632C130.528 11.472 130.016 11.28 129.536 11.072C129.856 10.848 130.144 10.64 130.432 10.416C130.608 10.272 130.688 10.192 130.816 10.144C130.928 10.112 130.992 10.048 130.992 9.952C130.992 9.872 130.944 9.808 130.864 9.744C130.56 9.52 130.288 9.328 129.936 9.12C129.872 9.232 129.824 9.328 129.76 9.408C129.744 9.28 129.744 9.088 129.744 8.752V8.128C129.744 7.584 129.776 7.408 129.776 7.312C129.776 7.152 129.76 7.136 129.6 7.136C129.504 7.136 129.04 7.168 127.696 7.168H124.912ZM128.304 8.816H124.272V8.096H128.304V8.816ZM127.696 9.712C128.72 9.712 129.232 9.728 129.456 9.744C129.2 9.984 128.88 10.256 128.48 10.544C128.08 10.288 127.728 10.016 127.408 9.712H127.696ZM128.624 6.576C130.144 6.576 130.656 6.608 130.752 6.608C130.912 6.608 130.928 6.592 130.928 6.416V5.68C130.928 5.52 130.912 5.504 130.752 5.504C130.656 5.504 130.144 5.536 128.624 5.536H126.944V4.88H127.92C129.344 4.88 129.808 4.912 129.904 4.912C130.064 4.912 130.08 4.896 130.08 4.736V3.968C130.08 3.808 130.064 3.792 129.904 3.792C129.808 3.792 129.344 3.824 127.92 3.824H126.944C126.944 3.648 126.96 3.504 127.008 3.392C127.04 3.328 127.104 3.248 127.104 3.152C127.104 3.072 127.04 3.024 126.832 2.992C126.448 2.944 125.92 2.896 125.376 2.88C125.424 3.152 125.44 3.504 125.456 3.824H124.72C123.312 3.824 122.848 3.792 122.752 3.792C122.576 3.792 122.56 3.808 122.56 3.968V4.736C122.56 4.896 122.576 4.912 122.752 4.912C122.848 4.912 123.312 4.88 124.72 4.88H125.456V5.536H124C122.464 5.536 121.968 5.504 121.856 5.504C121.696 5.504 121.68 5.52 121.68 5.68V6.416C121.68 6.592 121.696 6.608 121.856 6.608C121.968 6.608 122.464 6.576 124 6.576H128.624ZM121.024 15.296C121.184 15.296 121.2 15.28 121.2 15.12V14.464H131.424V15.104C131.424 15.264 131.44 15.28 131.6 15.28H132.88C133.056 15.28 133.072 15.264 133.072 15.104C133.072 15.008 133.04 13.904 133.04 8.912V5.184C133.04 2.544 133.072 1.424 133.072 1.328C133.072 1.152 133.056 1.136 132.88 1.136C132.784 1.136 132.272 1.168 130.784 1.168H121.84C120.352 1.168 119.84 1.136 119.728 1.136C119.568 1.136 119.552 1.152 119.552 1.328C119.552 1.424 119.584 2.544 119.584 5.744V8.912C119.584 13.92 119.552 15.008 119.552 15.12C119.552 15.28 119.568 15.296 119.728 15.296H121.024ZM121.2 2.624H131.424V13.04H121.2V2.624ZM140.896 3.872C139.792 3.872 138.496 3.872 137.408 3.76C137.44 4.352 137.504 4.912 137.6 5.472C137.632 5.664 137.68 5.76 137.888 5.76C138.752 5.68 139.936 5.648 140.864 5.648L147.6 5.616C146.416 6.992 145.248 8.224 143.904 9.392C143.232 8.768 142.464 8.208 141.632 7.6C141.536 7.536 141.472 7.488 141.408 7.488C141.36 7.488 141.296 7.52 141.232 7.568C140.944 7.824 140.4 8.336 140.08 8.64C142.048 10.048 143.664 11.616 145.216 13.616C145.28 13.712 145.344 13.76 145.408 13.76C145.472 13.76 145.536 13.728 145.616 13.68C145.984 13.392 146.336 13.056 146.656 12.736C146.752 12.64 146.8 12.56 146.8 12.48C146.8 12.4 146.768 12.336 146.688 12.24C146.224 11.648 145.792 11.152 145.28 10.64C146.72 9.36 148.208 7.872 149.584 6.352C149.792 6.128 150.016 5.984 150.352 5.744C150.496 5.648 150.56 5.536 150.56 5.408C150.56 5.296 150.512 5.184 150.432 5.056C150.08 4.56 149.712 4.16 149.28 3.776C149.2 3.696 149.104 3.648 149.008 3.648C148.944 3.648 148.864 3.68 148.784 3.728C148.576 3.824 148.384 3.872 147.456 3.872H140.896ZM154.528 6.464C155.168 7.232 155.664 8.112 156.032 9.04C156.112 9.264 156.208 9.344 156.432 9.264C156.8 9.12 157.072 8.992 157.456 8.768C157.584 8.688 157.648 8.64 157.648 8.544C157.648 8.48 157.616 8.416 157.584 8.304C157.28 7.456 156.768 6.64 156.208 5.936C156.08 5.76 155.968 5.744 155.792 5.824C155.456 5.984 155.072 6.16 154.528 6.464ZM157.744 5.648C158.352 6.496 158.72 7.264 159.088 8.208C159.168 8.432 159.232 8.512 159.408 8.448C159.856 8.288 160.208 8.128 160.512 7.952C160.72 7.84 160.752 7.76 160.672 7.52C160.416 6.752 159.872 5.744 159.44 5.184C159.312 4.992 159.2 4.976 159.024 5.056C158.752 5.168 158.384 5.344 157.744 5.648ZM162.784 5.264C162.72 6.016 162.624 6.368 162.416 6.96C161.952 8.208 161.056 9.776 160.256 10.816C159.296 12.064 158.336 12.88 156.416 14.144C157.008 14.32 157.376 14.496 157.776 14.816C157.856 14.896 157.952 14.928 158.032 14.928C158.16 14.928 158.288 14.848 158.416 14.752C159.776 13.856 160.656 13.008 161.712 11.664C162.608 10.496 163.44 9.04 164.128 7.408C164.256 7.12 164.368 6.8 164.608 6.592C164.736 6.48 164.784 6.4 164.784 6.304C164.784 6.208 164.704 6.128 164.576 6.032C164.176 5.76 163.456 5.472 162.784 5.264ZM178.416 4.896C177.776 6.672 176.96 8.032 175.712 9.456C174.24 11.168 172.816 12.272 170.48 13.456C171.072 13.696 171.6 13.984 171.968 14.336C172.096 14.464 172.24 14.512 172.368 14.512C172.512 14.512 172.656 14.464 172.8 14.368C174.416 13.456 175.968 12.128 177.344 10.56C178.688 9.008 179.664 7.248 180.448 5.36C180.592 5.04 180.672 4.88 180.816 4.736C180.928 4.624 180.976 4.528 180.976 4.432C180.976 4.32 180.928 4.224 180.848 4.112C180.576 3.728 180.176 3.344 179.76 3.008C179.68 2.928 179.584 2.896 179.488 2.896C179.408 2.896 179.312 2.928 179.216 2.992C178.992 3.12 178.816 3.152 178.336 3.152H172.624C171.12 3.152 170.272 3.12 169.552 3.04C169.584 3.504 169.648 4.336 169.696 4.656C169.728 4.88 169.792 4.992 170 4.976C170.688 4.944 171.6 4.896 172.64 4.896H178.416ZM181.968 0.112C181.008 0.112 180.24 0.832 180.24 1.824C180.24 2.784 181.008 3.536 181.968 3.536C182.928 3.536 183.696 2.784 183.696 1.824C183.696 0.863999 182.928 0.112 181.968 0.112ZM181.968 0.879999C182.512 0.879999 182.912 1.28 182.912 1.824C182.912 2.368 182.512 2.768 181.968 2.768C181.424 2.768 181.024 2.368 181.024 1.824C181.024 1.28 181.424 0.879999 181.968 0.879999Z" fill="black"/>
</svg>
